<svg width="369" height="467" viewBox="0 0 369 467" fill="none" xmlns="http://www.w3.org/2000/svg">
<mask id="path-1-inside-1_2356_5473" fill="white">
<path d="M229.58 34H272.58C294.671 34 312.58 51.9086 312.58 74V110H229.58V34Z"/>
</mask>
<path d="M229.58 30H272.58C296.881 30 316.58 49.6995 316.58 74H308.58C308.58 54.1177 292.462 38 272.58 38H229.58V30ZM229.58 38M312.58 110H229.58H312.58M312.58 110M229.58 110V34V110M272.58 30C296.881 30 316.58 49.6995 316.58 74V110H308.58V74C308.58 54.1177 292.462 38 272.58 38V30Z" fill="#00BAFF" mask="url(#path-1-inside-1_2356_5473)"/>
<mask id="path-3-inside-2_2356_5473" fill="white">
<path d="M229.58 166H312.58V202C312.58 224.091 294.671 242 272.58 242H229.58V166Z"/>
</mask>
<path d="M229.58 166H312.58H229.58M316.58 202C316.58 226.301 296.881 246 272.58 246H229.58V238H272.58C292.462 238 308.58 221.882 308.58 202H316.58ZM308.58 202M229.58 242V166V242M316.58 166V202C316.58 226.301 296.881 246 272.58 246V238C292.462 238 308.58 221.882 308.58 202V166H316.58Z" fill="#D7DCE3" mask="url(#path-3-inside-2_2356_5473)"/>
<mask id="path-5-inside-3_2356_5473" fill="white">
<path d="M79.5801 278C79.5801 255.909 97.4887 238 119.58 238H162.58V301H79.5801V278Z"/>
</mask>
<path d="M75.5801 278C75.5801 253.699 95.2795 234 119.58 234H162.58V242H119.58C99.6978 242 83.5801 258.118 83.5801 278H75.5801ZM83.5801 278M162.58 301H79.5801H162.58M75.5801 301V278C75.5801 253.699 95.2795 234 119.58 234V242C99.6978 242 83.5801 258.118 83.5801 278V301H75.5801ZM83.5801 301M162.58 238V301V238" fill="#D7DCE3" mask="url(#path-5-inside-3_2356_5473)"/>
<mask id="path-7-inside-4_2356_5473" fill="white">
<path d="M79.5801 356H162.58V418H119.58C97.4887 418 79.5801 400.091 79.5801 378V356Z"/>
</mask>
<path d="M79.5801 356H162.58H79.5801M162.58 422H119.58C95.2795 422 75.5801 402.301 75.5801 378H83.5801C83.5801 397.882 99.6978 414 119.58 414H162.58V422ZM119.58 422C95.2795 422 75.5801 402.301 75.5801 378V356H83.5801V378C83.5801 397.882 99.6978 414 119.58 414V422ZM119.58 414M162.58 356V418V356" fill="#D7DCE3" mask="url(#path-7-inside-4_2356_5473)"/>
<g filter="url(#filter0_d_2356_5473)">
<path d="M310.58 113.5C329.151 113.5 344.08 126.548 344.08 142.5C344.08 158.452 329.151 171.5 310.58 171.5C292.01 171.5 277.08 158.452 277.08 142.5C277.08 126.548 292.01 113.5 310.58 113.5Z" fill="#00A0E6" stroke="#00A0E6"/>
<path d="M310.58 110.5C328.815 110.5 343.08 122.624 343.08 137C343.08 151.376 328.815 163.5 310.58 163.5C292.345 163.5 278.08 151.376 278.08 137C278.08 122.624 292.345 110.5 310.58 110.5Z" fill="#00BAFF" stroke="#00A0E6" stroke-width="3"/>
<path d="M315.849 127.323C317.154 127.671 318.207 127.951 319.005 128.282C319.834 128.626 320.493 129.066 320.916 129.794C321.339 130.522 321.392 131.311 321.277 132.199C321.167 133.052 320.884 134.1 320.535 135.397L319.483 139.3C319.133 140.597 318.851 141.644 318.518 142.438C318.171 143.264 317.729 143.92 316.998 144.34C316.268 144.759 315.477 144.812 314.586 144.698C313.728 144.588 312.676 144.307 311.371 143.959L310.311 143.677C309.005 143.329 307.953 143.049 307.155 142.718C306.326 142.374 305.666 141.934 305.244 141.206C304.821 140.478 304.768 139.689 304.883 138.801C304.993 137.948 305.276 136.9 305.625 135.603L306.677 131.7C307.026 130.403 307.309 129.356 307.642 128.561C307.989 127.736 308.431 127.08 309.162 126.66C309.892 126.241 310.683 126.188 311.574 126.302C312.431 126.412 313.484 126.693 314.789 127.04L315.849 127.323ZM309.909 127.961C309.576 128.152 309.306 128.473 309.025 129.142C308.735 129.832 308.478 130.781 308.111 132.143L307.088 135.94C306.72 137.303 306.466 138.253 306.37 138.994C306.277 139.714 306.35 140.124 306.541 140.453C306.732 140.783 307.055 141.052 307.73 141.332C308.424 141.621 309.379 141.876 310.75 142.242L311.704 142.496C313.074 142.861 314.03 143.114 314.777 143.21C315.502 143.303 315.918 143.23 316.251 143.039C316.584 142.848 316.854 142.527 317.135 141.858C317.424 141.168 317.682 140.219 318.049 138.856L319.072 135.06C319.439 133.697 319.694 132.747 319.79 132.006C319.883 131.286 319.81 130.876 319.619 130.547C319.427 130.217 319.105 129.948 318.43 129.668C317.736 129.379 316.781 129.123 315.41 128.758L314.456 128.504C313.085 128.139 312.13 127.886 311.383 127.79C310.658 127.697 310.242 127.77 309.909 127.961ZM304.08 131.25C304.494 131.25 304.83 131.586 304.83 132C304.83 132.414 304.494 132.75 304.08 132.75H303.964C303.238 132.75 302.699 132.75 302.268 132.836C301.857 132.917 301.666 133.055 301.544 133.27C301.35 133.611 301.277 134.037 301.37 134.775C301.467 135.533 301.721 136.503 302.087 137.892L303.108 141.764C303.474 143.153 303.731 144.122 304.021 144.827C304.303 145.514 304.574 145.842 304.906 146.037C305.235 146.23 305.646 146.304 306.367 146.209C307.111 146.112 308.063 145.854 309.431 145.482L310.383 145.223C310.783 145.114 311.195 145.35 311.304 145.749C311.412 146.149 311.177 146.561 310.777 146.67L309.771 146.944C308.47 147.298 307.419 147.585 306.562 147.697C305.671 147.813 304.878 147.759 304.147 147.33C303.417 146.902 302.977 146.235 302.633 145.397C302.301 144.589 302.02 143.523 301.671 142.199L300.623 138.222C300.274 136.898 299.992 135.832 299.882 134.964C299.768 134.063 299.821 133.265 300.24 132.529C300.647 131.811 301.301 131.499 301.976 131.364C302.559 131.248 303.244 131.249 303.907 131.25H304.08ZM311.654 131.292L316.427 132.563C316.827 132.67 317.065 133.081 316.958 133.481C316.852 133.882 316.441 134.12 316.041 134.013L311.268 132.741C310.868 132.635 310.63 132.224 310.736 131.823C310.843 131.423 311.254 131.185 311.654 131.292ZM310.631 135.089L313.017 135.724C313.417 135.831 313.655 136.242 313.549 136.642C313.442 137.042 313.031 137.281 312.631 137.174L310.245 136.538C309.844 136.431 309.606 136.021 309.713 135.62C309.82 135.22 310.231 134.982 310.631 135.089Z" fill="white"/>
</g>
<g filter="url(#filter1_d_2356_5473)">
<path d="M196.08 216.5C214.651 216.5 229.58 229.548 229.58 245.5C229.58 261.452 214.651 274.5 196.08 274.5C177.51 274.5 162.58 261.452 162.58 245.5C162.58 229.548 177.51 216.5 196.08 216.5Z" fill="#D7DCE3" stroke="#D7DCE3"/>
<path d="M196.08 213.5C214.315 213.5 228.58 225.624 228.58 240C228.58 254.376 214.315 266.5 196.08 266.5C177.845 266.5 163.58 254.376 163.58 240C163.58 225.624 177.845 213.5 196.08 213.5Z" fill="#8A8D92" stroke="#D7DCE3" stroke-width="3"/>
<path d="M196.58 244.5V242.5" stroke="#F5F7FA" stroke-width="1.5" stroke-linecap="round"/>
<path d="M188.848 246.845C189.073 248.515 190.456 249.823 192.14 249.901C193.556 249.966 194.995 250 196.58 250C198.165 250 199.604 249.966 201.02 249.901C202.704 249.823 204.087 248.515 204.312 246.845C204.459 245.755 204.58 244.638 204.58 243.5C204.58 242.362 204.459 241.245 204.312 240.155C204.087 238.485 202.704 237.176 201.02 237.099C199.604 237.034 198.165 237 196.58 237C194.995 237 193.556 237.034 192.14 237.099C190.456 237.176 189.073 238.485 188.848 240.155C188.701 241.245 188.58 242.362 188.58 243.5C188.58 244.638 188.701 245.755 188.848 246.845Z" stroke="#F5F7FA" stroke-width="1.5"/>
<path d="M192.08 237V234.5C192.08 232.015 194.095 230 196.58 230C199.065 230 201.08 232.015 201.08 234.5V237" stroke="#F5F7FA" stroke-width="1.5" stroke-linecap="round" stroke-linejoin="round"/>
</g>
<g filter="url(#filter2_d_2356_5473)">
<path d="M81.5801 304.5C100.151 304.5 115.08 317.548 115.08 333.5C115.08 349.452 100.151 362.5 81.5801 362.5C63.0095 362.5 48.0801 349.452 48.0801 333.5C48.0801 317.548 63.0095 304.5 81.5801 304.5Z" fill="#D7DCE3" stroke="#D7DCE3"/>
<path d="M81.5801 301.5C99.8149 301.5 114.08 313.624 114.08 328C114.08 342.376 99.8149 354.5 81.5801 354.5C63.3452 354.5 49.0801 342.376 49.0801 328C49.0801 313.624 63.3452 301.5 81.5801 301.5Z" fill="#8A8D92" stroke="#D7DCE3" stroke-width="3"/>
<path d="M81.5801 332.5V330.5" stroke="#F5F7FA" stroke-width="1.5" stroke-linecap="round"/>
<path d="M73.8479 334.845C74.0728 336.515 75.4562 337.823 77.1397 337.901C78.5564 337.966 79.9954 338 81.5801 338C83.1648 338 84.6038 337.966 86.0204 337.901C87.704 337.823 89.0874 336.515 89.3123 334.845C89.459 333.755 89.5801 332.638 89.5801 331.5C89.5801 330.362 89.459 329.245 89.3123 328.155C89.0874 326.485 87.704 325.176 86.0204 325.099C84.6038 325.034 83.1648 325 81.5801 325C79.9954 325 78.5564 325.034 77.1397 325.099C75.4562 325.176 74.0728 326.485 73.8479 328.155C73.7011 329.245 73.5801 330.362 73.5801 331.5C73.5801 332.638 73.7011 333.755 73.8479 334.845Z" stroke="#F5F7FA" stroke-width="1.5"/>
<path d="M77.0801 325V322.5C77.0801 320.015 79.0948 318 81.5801 318C84.0654 318 86.0801 320.015 86.0801 322.5V325" stroke="#F5F7FA" stroke-width="1.5" stroke-linecap="round" stroke-linejoin="round"/>
</g>
<g filter="url(#filter3_d_2356_5473)">
<path d="M196.08 392.5C214.651 392.5 229.58 405.548 229.58 421.5C229.58 437.452 214.651 450.5 196.08 450.5C177.51 450.5 162.58 437.452 162.58 421.5C162.58 405.548 177.51 392.5 196.08 392.5Z" fill="#D7DCE3" stroke="#D7DCE3"/>
<path d="M196.08 389.5C214.315 389.5 228.58 401.624 228.58 416C228.58 430.376 214.315 442.5 196.08 442.5C177.845 442.5 163.58 430.376 163.58 416C163.58 401.624 177.845 389.5 196.08 389.5Z" fill="#8A8D92" stroke="#D7DCE3" stroke-width="3"/>
<path d="M196.58 420.5V418.5" stroke="#F5F7FA" stroke-width="1.5" stroke-linecap="round"/>
<path d="M188.848 422.845C189.073 424.515 190.456 425.823 192.14 425.901C193.556 425.966 194.995 426 196.58 426C198.165 426 199.604 425.966 201.02 425.901C202.704 425.823 204.087 424.515 204.312 422.845C204.459 421.755 204.58 420.638 204.58 419.5C204.58 418.362 204.459 417.245 204.312 416.155C204.087 414.485 202.704 413.176 201.02 413.099C199.604 413.034 198.165 413 196.58 413C194.995 413 193.556 413.034 192.14 413.099C190.456 413.176 189.073 414.485 188.848 416.155C188.701 417.245 188.58 418.362 188.58 419.5C188.58 420.638 188.701 421.755 188.848 422.845Z" stroke="#F5F7FA" stroke-width="1.5"/>
<path d="M192.08 413V410.5C192.08 408.015 194.095 406 196.58 406C199.065 406 201.08 408.015 201.08 410.5V413" stroke="#F5F7FA" stroke-width="1.5" stroke-linecap="round" stroke-linejoin="round"/>
</g>
<g filter="url(#filter4_d_2356_5473)">
<path d="M196.08 12.5C214.651 12.5 229.58 25.548 229.58 41.5C229.58 57.452 214.651 70.5 196.08 70.5C177.51 70.5 162.58 57.452 162.58 41.5C162.58 25.548 177.51 12.5 196.08 12.5Z" fill="#00A0E6" stroke="#00A0E6"/>
<path d="M196.08 9.5C214.315 9.5 228.58 21.6237 228.58 36C228.58 50.3763 214.315 62.5 196.08 62.5C177.845 62.5 163.58 50.3763 163.58 36C163.58 21.6237 177.845 9.5 196.08 9.5Z" fill="#00BAFF" stroke="#00BAFF" stroke-width="3"/>
<path d="M180.983 51.7622L214.19 20.7115C214.74 20.1975 215.532 20.0363 216.215 20.3511C217.527 20.9552 219.746 22.1316 221.586 23.8738C222.781 25.0056 224.031 26.8471 224.809 28.0839C225.284 28.839 225.155 29.8117 224.529 30.4472L195.468 59.9555C193.964 61.4827 191.834 62.2676 189.743 61.7967C188.331 61.4787 186.748 61.0154 185.586 60.3738C184.364 59.6989 183.141 59.0586 182.009 58.4839C179.459 57.1896 178.894 53.7152 180.983 51.7622Z" fill="#4FD8FF" stroke="#00BAFF"/>
<path d="M174.988 48.3639L203.718 18.3474C204.777 17.2416 204.24 15.4799 202.72 15.2961C196.775 14.5769 184.181 14.4277 175.086 23.8734C165.792 33.5246 168.509 43.1756 170.813 47.8944C171.617 49.5396 173.722 49.6866 174.988 48.3639Z" fill="#4FD8FF" stroke="#00BAFF" stroke-linecap="round"/>
<path d="M189.58 37.2591L192.166 39.9567C192.833 40.6522 193.166 41 193.58 41C193.994 41 194.328 40.6522 194.994 39.9567L203.58 31" stroke="white" stroke-width="4" stroke-linecap="round" stroke-linejoin="round"/>
</g>
<rect x="-6" y="171.918" width="345" height="288" fill="url(#paint0_linear_2356_5473)"/>
<defs>
<filter id="filter0_d_2356_5473" x="264.58" y="101" width="92" height="87" filterUnits="userSpaceOnUse" color-interpolation-filters="sRGB">
<feFlood flood-opacity="0" result="BackgroundImageFix"/>
<feColorMatrix in="SourceAlpha" type="matrix" values="0 0 0 0 0 0 0 0 0 0 0 0 0 0 0 0 0 0 127 0" result="hardAlpha"/>
<feOffset dy="4"/>
<feGaussianBlur stdDeviation="6"/>
<feComposite in2="hardAlpha" operator="out"/>
<feColorMatrix type="matrix" values="0 0 0 0 0 0 0 0 0 0 0 0 0 0 0 0 0 0 0.1 0"/>
<feBlend mode="normal" in2="BackgroundImageFix" result="effect1_dropShadow_2356_5473"/>
<feBlend mode="normal" in="SourceGraphic" in2="effect1_dropShadow_2356_5473" result="shape"/>
</filter>
<filter id="filter1_d_2356_5473" x="150.08" y="204" width="92" height="88" filterUnits="userSpaceOnUse" color-interpolation-filters="sRGB">
<feFlood flood-opacity="0" result="BackgroundImageFix"/>
<feColorMatrix in="SourceAlpha" type="matrix" values="0 0 0 0 0 0 0 0 0 0 0 0 0 0 0 0 0 0 127 0" result="hardAlpha"/>
<feOffset dy="4"/>
<feGaussianBlur stdDeviation="6"/>
<feComposite in2="hardAlpha" operator="out"/>
<feColorMatrix type="matrix" values="0 0 0 0 0 0 0 0 0 0 0 0 0 0 0 0 0 0 0.1 0"/>
<feBlend mode="normal" in2="BackgroundImageFix" result="effect1_dropShadow_2356_5473"/>
<feBlend mode="normal" in="SourceGraphic" in2="effect1_dropShadow_2356_5473" result="shape"/>
</filter>
<filter id="filter2_d_2356_5473" x="35.5801" y="292" width="92" height="88" filterUnits="userSpaceOnUse" color-interpolation-filters="sRGB">
<feFlood flood-opacity="0" result="BackgroundImageFix"/>
<feColorMatrix in="SourceAlpha" type="matrix" values="0 0 0 0 0 0 0 0 0 0 0 0 0 0 0 0 0 0 127 0" result="hardAlpha"/>
<feOffset dy="4"/>
<feGaussianBlur stdDeviation="6"/>
<feComposite in2="hardAlpha" operator="out"/>
<feColorMatrix type="matrix" values="0 0 0 0 0 0 0 0 0 0 0 0 0 0 0 0 0 0 0.1 0"/>
<feBlend mode="normal" in2="BackgroundImageFix" result="effect1_dropShadow_2356_5473"/>
<feBlend mode="normal" in="SourceGraphic" in2="effect1_dropShadow_2356_5473" result="shape"/>
</filter>
<filter id="filter3_d_2356_5473" x="150.08" y="380" width="92" height="88" filterUnits="userSpaceOnUse" color-interpolation-filters="sRGB">
<feFlood flood-opacity="0" result="BackgroundImageFix"/>
<feColorMatrix in="SourceAlpha" type="matrix" values="0 0 0 0 0 0 0 0 0 0 0 0 0 0 0 0 0 0 127 0" result="hardAlpha"/>
<feOffset dy="4"/>
<feGaussianBlur stdDeviation="6"/>
<feComposite in2="hardAlpha" operator="out"/>
<feColorMatrix type="matrix" values="0 0 0 0 0 0 0 0 0 0 0 0 0 0 0 0 0 0 0.1 0"/>
<feBlend mode="normal" in2="BackgroundImageFix" result="effect1_dropShadow_2356_5473"/>
<feBlend mode="normal" in="SourceGraphic" in2="effect1_dropShadow_2356_5473" result="shape"/>
</filter>
<filter id="filter4_d_2356_5473" x="150.08" y="0" width="92" height="88" filterUnits="userSpaceOnUse" color-interpolation-filters="sRGB">
<feFlood flood-opacity="0" result="BackgroundImageFix"/>
<feColorMatrix in="SourceAlpha" type="matrix" values="0 0 0 0 0 0 0 0 0 0 0 0 0 0 0 0 0 0 127 0" result="hardAlpha"/>
<feOffset dy="4"/>
<feGaussianBlur stdDeviation="6"/>
<feComposite in2="hardAlpha" operator="out"/>
<feColorMatrix type="matrix" values="0 0 0 0 0 0 0 0 0 0 0 0 0 0 0 0 0 0 0.1 0"/>
<feBlend mode="normal" in2="BackgroundImageFix" result="effect1_dropShadow_2356_5473"/>
<feBlend mode="normal" in="SourceGraphic" in2="effect1_dropShadow_2356_5473" result="shape"/>
</filter>
<linearGradient id="paint0_linear_2356_5473" x1="166.5" y1="171.918" x2="166.5" y2="459.918" gradientUnits="userSpaceOnUse">
<stop stop-color="white" stop-opacity="0.05"/>
<stop offset="1" stop-color="#F6F6F4"/>
</linearGradient>
</defs>
</svg>
